{"title":"The Flash S02E10 Potential Energy 1080P WEB-DL DD5 1 H 264","uid":13268211,"size":1762997357,"categoryP":"video","categoryS":"hd___tv_shows","magnet":"?xt=urn:btih:f15352df19e417a54f91db9027b237b37d0951ef&amp;dn=The+Flash+S02E10+Potential+Energy+1080P+WEB-DL+DD5+1+H+264&amp;tr=udp%3A%2F%2Ftracker.leechers-paradise.org%3A6969&amp;tr=udp%3A%2F%2Fzer0day.ch%3A1337&amp;tr=udp%3A%2F%2Fopen.demonii.com%3A1337&amp;tr=udp%3A%2F%2Ftracker.coppersurfer.tk%3A6969&amp;tr=udp%3A%2F%2Fexodus.desync.com%3A6969","seeders":0,"leechers":1,"uploader":"jmanwf","files":2,"time":1453366372,"description":"Now that they've grown closer, Barry considers telling Patty that he is The Flash. Meanwhile, Joe and Iris try to get to know Wally; and the team hunts down a meta-human who can slow time itself.\r\n\r\n\r\n\r\nVideo\r\nID : 2\r\nFormat : AVC\r\nFormat/Info : Advanced Video Codec\r\nFormat profile :   \r\nFormat settings, CABAC : Yes\r\nFormat settings, ReFrames : 4 frames\r\nCodec ID : avc1\r\nCodec ID/Info : Advanced Video Coding\r\nDuration : 42mn 29s\r\nBit rate : 5 019 Kbps\r\nWidth : 1 916 pixels\r\nHeight : 1 076 pixels\r\nDisplay aspect ratio : 16:9\r\nFrame rate mode : Constant\r\nFrame rate : 23.976 fps\r\nColor space : YUV\r\nChroma subsampling : 4:2:0\r\nBit depth : 8 bits\r\nScan type : Progressive\r\nBits/(Pixel*Frame) : 0.102\r\nStream size : 1.49 GiB (91%)\r\nLanguage : English\r\nEncoded date : UTC 2016-01-21 01:05:16\r\nTagged date : UTC 2016-01-21 01:08:36\r\nColor range : Limited\r\nColor primaries : BT.709\r\nTransfer characteristics : BT.709\r\nMatrix coefficients : BT.709\r\n\r\nAudio #1\r\nID : 1\r\nFormat : AAC\r\nFormat/Info : Advanced Audio Codec\r\nFormat profile : LC\r\nCodec ID : 40\r\nDuration : 42mn 29s\r\nBit rate mode : Variable\r\nBit rate : 125 Kbps\r\nMaximum bit rate : 208 Kbps\r\nChannel(s) : 2 channels\r\nChannel positions : Front: L R\r\nSampling rate : 48.0 KHz\r\nCompression mode : Lossy\r\nStream size : 38.0 MiB (2%)\r\nLanguage : English\r\nEncoded date : UTC 2016-01-21 01:05:16\r\nTagged date : UTC 2016-01-21 01:08:36\r\n\r\nAudio #2\r\nID : 3\r\nFormat : AC-3\r\nFormat/Info : Audio Coding 3\r\nMode extension : CM (complete main)\r\nFormat settings, Endianness : Big\r\nCodec ID : ac-3\r\nDuration : 42mn 29s\r\nBit rate mode : Constant\r\nBit rate : 384 Kbps\r\nChannel(s) : 6 channels\r\nChannel positions : Front: L C R, Side: L R, LFE\r\nSampling rate : 48.0 KHz\r\nBit depth : 16 bits\r\nCompression mode : Lossy\r\nStream size : 117 MiB (7%)\r\nLanguage : English\r\nEncoded date : UTC 2016-01-21 01:05:16\r\nTagged date : UTC 2016-01-21 01:08:36\r\n\r\nText\r\nID : 4-CC1\r\nFormat : EIA-608\r\nMuxing mode : Final Cut\r\nCodec ID : c608\r\nDuration : 41mn 58s\r\nBit rate mode : Constant\r\nStream size : 0.00 Byte (0%)\r\nLanguage : English\r\nEncoded date : UTC 2016-01-21 01:05:16\r\nTagged date : UTC 2016-01-21 01:05:23","torrent":{"xt":"urn:btih:f15352df19e417a54f91db9027b237b37d0951ef","amp;dn":"The+Flash+S02E10+Potential+Energy+1080P+WEB-DL+DD5+1+H+264","amp;tr":["udp%3A%2F%2Ftracker.leechers-paradise.org%3A6969","udp%3A%2F%2Fzer0day.ch%3A1337","udp%3A%2F%2Fopen.demonii.com%3A1337","udp%3A%2F%2Ftracker.coppersurfer.tk%3A6969","udp%3A%2F%2Fexodus.desync.com%3A6969"],"infoHash":"f15352df19e417a54f91db9027b237b37d0951ef","infoHashBuffer":{"type":"Buffer","data":[241,83,82,223,25,228,23,165,79,145,219,144,39,178,55,179,125,9,81,239]},"announce":[],"urlList":[]}}